<?xml version="1.0" standalone="no"?>
<!DOCTYPE svg PUBLIC "-//W3C//DTD SVG 20010904//EN"
        "http://www.w3.org/TR/2001/REC-SVG-20010904/DTD/svg10.dtd">
<svg version="1.0" xmlns="http://www.w3.org/2000/svg"
     width="200.000000pt" height="200.000000pt" viewBox="0 0 200.000000 200.000000"
     preserveAspectRatio="xMidYMid meet">
    <metadata>
        Created by potrace 1.14, written by Peter Selinger 2001-2017
    </metadata>
    <g transform="translate(0.000000,200.000000) scale(0.100000,-0.100000)"
       fill="#000000" stroke="none">
        <path d="M874 1555 c-238 -52 -422 -264 -440 -508 -8 -114 8 -196 57 -297 109
-221 349 -348 592 -311 209 32 376 169 457 376 21 52 24 78 24 185 0 113 -3
132 -28 195 -106 271 -382 421 -662 360z m208 -185 c211 -85 282 -117 286
-128 3 -9 -82 -12 -368 -12 -399 0 -414 2 -309 46 219 92 296 123 306 124 6 0
44 -13 85 -30z m238 -185 c0 -13 -42 -15 -320 -15 -278 0 -320 2 -320 15 0 13
42 15 320 15 278 0 320 -2 320 -15z m-510 -59 c0 -8 -5 -18 -10 -21 -7 -4 -8
-50 -4 -136 l7 -129 -46 0 c-25 0 -48 3 -50 8 -2 4 0 61 5 127 5 76 4 123 -2
129 -24 24 -10 36 45 36 41 0 55 -4 55 -14z m160 1 c0 -7 -4 -17 -9 -22 -6 -6
-6 -57 0 -129 5 -65 6 -122 3 -127 -3 -5 -26 -9 -51 -9 l-46 0 7 124 c5 81 4
131 -3 144 -14 27 -6 32 51 32 33 0 48 -4 48 -13z m155 -135 l0 -147 -48 -3
-47 -3 2 150 3 151 45 0 45 0 0 -148z m162 -2 l2 -150 -50 0 -51 0 6 88 c4 48
9 106 12 129 3 24 1 44 -6 48 -5 3 -10 13 -10 21 0 10 13 14 48 14 l47 0 2
-150z m33 -195 c0 -13 -42 -15 -320 -15 -278 0 -320 2 -320 15 0 13 42 15 320
15 278 0 320 -2 320 -15z m30 -50 c0 -13 -46 -15 -350 -15 -192 0 -350 4 -350
8 0 5 3 12 7 15 3 4 161 7 350 7 298 0 343 -2 343 -15z m20 -60 c0 -13 -48
-15 -370 -15 -322 0 -370 2 -370 15 0 13 48 15 370 15 322 0 370 -2 370 -15z"/>
    </g>
</svg>
